<svg viewBox="0 0 32 32" xmlns="http://www.w3.org/2000/svg">
    <path d="M29,2H9A1,1,0,0,0,8,3V8H3A1,1,0,0,0,2,9V29a1,1,0,0,0,1,1H23a1,1,0,0,0,1-1V24h5a1,1,0,0,0,1-1V3A1,1,0,0,0,29,2ZM4,28V10H8V23a1,1,0,0,0,1,1H22v4Zm24-6H24V21a1,1,0,0,0-2,0v1H10V10h1a1,1,0,0,0,0-2H10V4H28Z"/>
    <path d="M14.33,10h3.34a1,1,0,0,0,0-2H14.33a1,1,0,1,0,0,2Z"/>
    <path d="M21,10h1v1a1,1,0,0,0,2,0V9a1,1,0,0,0-1-1H21a1,1,0,0,0,0,2Z"/>
    <path d="M23,13.33a1,1,0,0,0-1,1v3.34a1,1,0,0,0,2,0V14.33A1,1,0,0,0,23,13.33Z"/>
</svg>